<svg xmlns="http://www.w3.org/2000/svg" viewBox="0 0 512 512" width="512" height="512">
  <defs>
    <linearGradient id="grad1" x1="0%" y1="0%" x2="100%" y2="100%">
      <stop offset="0%" style="stop-color:#d4802a;stop-opacity:1" />
      <stop offset="50%" style="stop-color:#e9a84a;stop-opacity:1" />
      <stop offset="100%" style="stop-color:#567a5b;stop-opacity:1" />
    </linearGradient>
    <linearGradient id="grad2" x1="0%" y1="0%" x2="100%" y2="100%">
      <stop offset="0%" style="stop-color:#567a5b;stop-opacity:0.8" />
      <stop offset="100%" style="stop-color:#d4802a;stop-opacity:0.6" />
    </linearGradient>
  </defs>
  <!-- Abstract blob shape -->
  <path d="M256 48c80 0 160 40 180 120s-20 140-60 180c-40 40-100 80-160 80s-120-40-150-100c-30-60-10-140 40-190S176 48 256 48z" fill="url(#grad1)"/>
  <!-- Secondary blob -->
  <path d="M300 140c50 10 90 50 80 100s-60 80-110 70-80-50-70-100 50-80 100-70z" fill="url(#grad2)" opacity="0.5"/>
  <!-- Text -->
  <text x="256" y="270" text-anchor="middle" font-family="Inter, system-ui, sans-serif" font-size="82" font-weight="700" fill="white" letter-spacing="-2">MoRN</text>
  <text x="256" y="350" text-anchor="middle" font-family="Inter, system-ui, sans-serif" font-size="52" font-weight="400" fill="rgba(255,255,255,0.9)" letter-spacing="4">PREP</text>
</svg>
